<?xml version="1.0" encoding="utf-8"?>
<svg id="master-artboard" viewBox="0 0 200 35" version="1.1" xmlns="http://www.w3.org/2000/svg" x="0px" y="0px" style="enable-background:new 0 0 1400 980;" width="200px" height="35px"><defs><style id="ee-google-fonts">@import url(https://fonts.googleapis.com/css?family=Abril+Fatface:400);</style></defs><rect id="ee-background" x="0" y="0" width="200" height="35" style="fill: white; fill-opacity: 0; pointer-events: none;"/>






<g transform="matrix(1.3716264963150024, 0, 0, 1.3716264963150024, -1501.5588073730469, -971.3977317810059)">
		
		
		<g transform="matrix(0.7877486955356393, 0, 0, 0.7803406715393066, 266.41380987986963, 161.6045379638672)">
			<g>
				<path d="M 1050.699951 700.799988 H 1235.799957 V 733.499989 H 1050.699951 V 700.799988 Z" class="st20" style="fill: rgb(0, 153, 216);"/>
			</g>
			<g>
				<path d="M 1219.500025 717.099976 A 8.1 8.1 0 0 1 1211.400024 725.199976 A 8.1 8.1 0 0 1 1203.300024 717.099976 A 8.1 8.1 0 0 1 1211.400024 708.999975 A 8.1 8.1 0 0 1 1219.500025 717.099976 Z" class="st6" style="fill: rgb(255, 255, 255);"/>
			</g>
			<g transform="matrix(1, 0, 0, 1, 3.985476823613112, 0)">
				<path d="M 1182.699951 700.799988 H 1191.399951 V 733.499989 H 1182.699951 V 700.799988 Z" class="st6" style="fill: rgb(255, 255, 255);"/>
			</g>
			<g>
				<path d="M 1064.900024 700.799988 H 1073.600024 V 733.499989 H 1064.900024 V 700.799988 Z" class="st6" style="fill: rgb(255, 255, 255);"/>
			</g>
			<g transform="matrix(1.2284873643696188, 0, 0, 1.2284873643696188, -254.29828263678962, -163.85970168922947)">
				<path d="M 1086.800049 709.099976 H 1168.20005 V 725.199976 H 1086.800049 V 709.099976 Z" class="st6" style="fill: rgb(255, 255, 255);"/>
			</g>
		</g>
		
		
		
	</g>







</svg>