<?xml version="1.0" encoding="utf-8"?>
<svg id="master-artboard" viewBox="0 0 1400 980" version="1.1" xmlns="http://www.w3.org/2000/svg" x="0px" y="0px" style="enable-background:new 0 0 1400 980;" width="1400px" height="980px"><defs><style id="ee-google-fonts">@import url(https://fonts.googleapis.com/css?family=Abril+Fatface:400);</style></defs><rect id="ee-background" x="0" y="0" width="1400" height="980" style="fill: white; fill-opacity: 0; pointer-events: none;"/>

<g transform="matrix(1, 0, 0, 1, 0, 0)">
		<g>
			<path d="M 701 0 L 0 0 L 0 980 L 701 980 L 1400 980 L 1400 0 Z" class="st0" style="fill: rgb(232, 206, 171);"/>
		</g>
	</g>
<g transform="matrix(1, 0, 0, 1, 0, 0)">
		<path d="M 59.099998 619.400024 H 1309.29995 V 654.300026 H 59.099998 V 619.400024 Z" class="st1" style="fill: rgb(106, 64, 34);"/>
		<path class="st2" d="M1309.8,654.8H58.6v-35.9h1251.2V654.8z M59.6,653.8h1249.3v-34H59.6V653.8z" style="fill: rgb(66, 36, 5);"/>
	</g><path d="M 354.700012 650.299988 H 1013.700012 V 789.599991 H 354.700012 V 650.299988 Z" class="st3" style="fill: rgb(78, 44, 15);" transform="matrix(1, 0, 0, 1, 0, 0)"/><g transform="matrix(1, 0, 0, 1, 0, 0)">
			<path d="M 334.399994 654.299988 H 374.999992 V 1044.5 H 334.399994 V 654.299988 Z" class="st4" style="fill: rgb(155, 101, 62);"/>
		</g><g transform="matrix(1, 0, 0, 1, 0, 0)">
			<path d="M 80.800003 654.299988 H 121.400002 V 1044.5 H 80.800003 V 654.299988 Z" class="st4" style="fill: rgb(155, 101, 62);"/>
		</g><g transform="matrix(1, 0, 0, 1, 0, 0)">
			<path d="M 993.400024 654.299988 H 1034.000023 V 1044.5 H 993.400024 V 654.299988 Z" class="st4" style="fill: rgb(155, 101, 62);"/>
		</g><g transform="matrix(1, 0, 0, 1, 0, 0)">
			<path d="M 1249.800049 654.299988 H 1290.400047 V 1044.5 H 1249.800049 V 654.299988 Z" class="st4" style="fill: rgb(155, 101, 62);"/>
		</g><path d="M 993 653.400024 H 1287.200012 V 667.800024 H 993 V 653.400024 Z" class="st5" style="fill: rgb(205, 207, 208);" transform="matrix(1, 0, 0, 1, 0, 0)"/><g transform="matrix(1, 0, 0, 1, 0, 0)">
			<path d="M 119.699997 754.700012 H 334.399994 V 980.000015 H 119.699997 V 754.700012 Z" class="st3" style="fill: rgb(78, 44, 15);"/>
		</g><g transform="matrix(1, 0, 0, 1, 0, 0)">
			<path d="M 119.699997 654.299988 H 334.399994 V 753.899986 H 119.699997 V 654.299988 Z" class="st1" style="fill: rgb(106, 64, 34);"/>
			<path class="st2" d="M334.8,754.3H119.3V654h215.5V754.3z M120.1,753.5h214v-98.8h-214V753.5z" style="fill: rgb(66, 36, 5);"/>
		</g><path d="M 80.800003 653.400024 H 375.000015 V 667.800024 H 80.800003 V 653.400024 Z" class="st5" style="fill: rgb(205, 207, 208);" transform="matrix(1, 0, 0, 1, 0, 0)"/><g transform="matrix(1, 0, 0, 1, 0, 0)">
				<path d="M 182.699997 697.599976 H 269.899994 V 710.699976 H 182.699997 V 697.599976 Z" class="st6" style="fill: rgb(255, 255, 255);"/>
			</g><g transform="matrix(1, 0, 0, 1, 0, 0)">
			<path d="M 1034 654.299988 H 1251 V 1000 H 1034 V 654.299988 Z" class="st3" style="fill: rgb(78, 44, 15);"/>
		</g><g transform="matrix(1, 0, 0, 1, 0, 0)">
				<path d="M 1032.5 831 H 1252.800003 V 844.1 H 1032.5 V 831 Z" class="st4" style="fill: rgb(155, 101, 62);"/>
			</g>
<g transform="matrix(1, 0, 0, 1, 0, 0)">
		<g>
			<g>
				<path class="st7" d="M959.8,215.6c0-8.2-6.6-14.8-14.8-14.8H424.8c-8.2,0-14.8,6.6-14.8,14.8v288.1h549.8V215.6z" style="fill: rgb(245, 245, 245);"/>
			</g>
		</g>
		<g>
			<g>
				<path class="st8" d="M410,503.7v42.7c0,8.2,6.6,14.8,14.8,14.8H945c8.2,0,14.8-6.6,14.8-14.8v-42.7H410z" style="fill: rgb(43, 46, 74);"/>
			</g>
		</g>
		<g>
			<g>
				<path d="M 423.100006 215.600006 H 943.800018 V 488.899994 H 423.100006 V 215.600006 Z" class="st9" style="fill: rgb(31, 181, 135);"/>
			</g>
		</g>
		<g>
			<g>
				<path class="st10" d="M655.5,268.7H463.9v-6.9c0-4.4-1.1-17.1,3.3-17.1h185.5c4.4,0,2.9,12.7,2.9,17.1V268.7z" style="fill: rgb(241, 90, 36);"/>
			</g>
			<g>
				<path class="st6" d="M632.2,262.3h-12.9v-10.5h12.9V262.3z M620.1,261.4h11.2v-8.9h-11.2V261.4z" style="fill: rgb(255, 255, 255);"/>
			</g>
			<g>
				<path d="M 600.599976 261.399994 H 612.699976 V 262.199994 H 600.599976 V 261.399994 Z" class="st6" style="fill: rgb(255, 255, 255);"/>
			</g>
			<g>
				<g>
					
						<path d="M 637 256.299988 H 649.1 V 257.099988 H 637 V 256.299988 Z" transform="matrix(0.707 0.7072 -0.7072 0.707 369.9057 -379.5135)" class="st6" style="fill: rgb(255, 255, 255);"/>
				</g>
				<g>
					
						<path d="M 642.599976 250.699997 H 643.399976 V 262.799997 H 642.599976 V 250.699997 Z" transform="matrix(0.7071 0.7071 -0.7071 0.7071 369.8536 -379.491)" class="st6" style="fill: rgb(255, 255, 255);"/>
				</g>
			</g>
			<g>
				<path d="M 463.899994 268.700012 H 655.5 V 469.700012 H 463.899994 V 268.700012 Z" class="st6" style="fill: rgb(255, 255, 255);"/>
			</g>
			<g>
				<path d="M 475.600006 276.100006 H 643 V 332.800007 H 475.600006 V 276.100006 Z" class="st11" style="fill: rgb(198, 195, 198);"/>
			</g>
			<g>
				<path d="M 475.600006 351 H 643 V 367.200001 H 475.600006 V 351 Z" class="st11" style="fill: rgb(198, 195, 198);"/>
			</g>
			<g>
				<path d="M 475.600006 377.200012 H 643 V 393.400013 H 475.600006 V 377.200012 Z" class="st11" style="fill: rgb(198, 195, 198);"/>
			</g>
			<g>
				<path d="M 475.600006 403.399994 H 643 V 419.599995 H 475.600006 V 403.399994 Z" class="st11" style="fill: rgb(198, 195, 198);"/>
			</g>
			<g>
				<path d="M 475.600006 429.600006 H 643 V 445.800007 H 475.600006 V 429.600006 Z" class="st11" style="fill: rgb(198, 195, 198);"/>
			</g>
		</g>
		<g>
			<g>
				<path class="st10" d="M904.2,344.2H712.6v-6.9c0-4.4-1.1-17.1,3.3-17.1h185.5c4.4,0,2.9,12.7,2.9,17.1V344.2z" style="fill: rgb(241, 90, 36);"/>
			</g>
			<g>
				<path class="st6" d="M880.9,337.8h-12.9v-10.5h12.9V337.8z M868.9,337h11.2v-8.9h-11.2V337z" style="fill: rgb(255, 255, 255);"/>
			</g>
			<g>
				<path d="M 849.299988 337 H 861.399988 V 337.8 H 849.299988 V 337 Z" class="st6" style="fill: rgb(255, 255, 255);"/>
			</g>
			<g>
				<g>
					
						<path d="M 885.700012 331.799988 H 897.800013 V 332.599988 H 885.700012 V 331.799988 Z" transform="matrix(0.707 0.7072 -0.7072 0.707 496.2295 -533.2926)" class="st6" style="fill: rgb(255, 255, 255);"/>
				</g>
				<g>
					
						<path d="M 891.299988 326.200012 H 892.099988 V 338.300013 H 891.299988 V 326.200012 Z" transform="matrix(0.7071 0.7071 -0.7071 0.7071 496.1331 -533.2485)" class="st6" style="fill: rgb(255, 255, 255);"/>
				</g>
			</g>
			<g>
				<path d="M 712.599976 344.200012 H 904.199982 V 471.800011 H 712.599976 V 344.200012 Z" class="st12" style="fill: rgb(229, 229, 229);"/>
			</g>
			<g>
				<path d="M 726.599976 363.100006 H 800.199974 V 457.900009 H 726.599976 V 363.100006 Z" class="st11" style="fill: rgb(198, 195, 198);"/>
			</g>
			<g>
				<path d="M 815.200012 363.100006 H 888.800011 V 379.300007 H 815.200012 V 363.100006 Z" class="st11" style="fill: rgb(198, 195, 198);"/>
			</g>
			<g>
				<path d="M 815.200012 391.600006 H 888.800011 V 458.000008 H 815.200012 V 391.600006 Z" class="st11" style="fill: rgb(198, 195, 198);"/>
			</g>
		</g>
		<g>
			<g>
				<path class="st10" d="M871.1,312H679.5v-6.9c0-4.4-1.1-17.1,3.3-17.1h185.5c4.4,0,2.9,12.7,2.9,17.1V312z" style="fill: rgb(241, 90, 36);"/>
			</g>
			<g>
				<path class="st6" d="M847.8,305.6h-12.9v-10.5h12.9V305.6z M835.7,304.8H847v-8.9h-11.2V304.8z" style="fill: rgb(255, 255, 255);"/>
			</g>
			<g>
				<path d="M 816.200012 304.799988 H 828.300013 V 305.599988 H 816.200012 V 304.799988 Z" class="st6" style="fill: rgb(255, 255, 255);"/>
			</g>
			<g>
				<g>
					
						<path d="M 852.599976 299.600006 H 864.699976 V 300.400006 H 852.599976 V 299.600006 Z" transform="matrix(0.707 0.7072 -0.7072 0.707 463.7508 -519.2827)" class="st6" style="fill: rgb(255, 255, 255);"/>
				</g>
				<g>
					
						<path d="M 858.200012 294 H 859.000012 V 306.1 H 858.200012 V 294 Z" transform="matrix(0.7071 0.7071 -0.7071 0.7071 463.655 -519.2362)" class="st6" style="fill: rgb(255, 255, 255);"/>
				</g>
			</g>
			<g>
				<path d="M 679.5 312 H 871.100006 V 439.599998 H 679.5 V 312 Z" class="st6" style="fill: rgb(255, 255, 255);"/>
			</g>
			<g>
				<path d="M 693.5 330.899994 H 767.099998 V 425.699997 H 693.5 V 330.899994 Z" class="st11" style="fill: rgb(198, 195, 198);"/>
			</g>
			<g>
				<path d="M 782.099976 330.899994 H 855.699974 V 347.099995 H 782.099976 V 330.899994 Z" class="st11" style="fill: rgb(198, 195, 198);"/>
			</g>
			<g>
				<path d="M 782.099976 357.100006 H 855.699974 V 373.300007 H 782.099976 V 357.100006 Z" class="st11" style="fill: rgb(198, 195, 198);"/>
			</g>
			<g>
				<path d="M 782.099976 383.399994 H 855.699974 V 399.599995 H 782.099976 V 383.399994 Z" class="st11" style="fill: rgb(198, 195, 198);"/>
			</g>
			<g>
				<path d="M 782.099976 409.600006 H 855.699974 V 425.800007 H 782.099976 V 409.600006 Z" class="st11" style="fill: rgb(198, 195, 198);"/>
			</g>
		</g>
		<g class="st13" style="opacity: 0.2;">
			<g>
				<path d="M 424.6000061035156 215.8000030517578 L 424.6000061035156 489.1000061035156 L 569.7999877929688 489.1000061035156 L 694.9000244140625 215.8000030517578 Z" class="st6" style="fill: rgb(255, 255, 255);"/>
			</g>
		</g>
		<g>
			<g>
				<path d="M 630.200012 561.099976 H 739.500015 V 599.299976 H 630.200012 V 561.099976 Z" class="st7" style="fill: rgb(245, 245, 245);"/>
			</g>
		</g>
		<g>
			<g>
				<path d="M 588.5 599.299988 H 781.399994 V 617.999989 H 588.5 V 599.299988 Z" class="st7" style="fill: rgb(245, 245, 245);"/>
			</g>
		</g>
		<g>
			<path class="st7" d="M694.3,532.4c0,5.2-4.2,9.4-9.3,9.4c-5.2,0-9.3-4.2-9.3-9.4c0-5.2,4.2-9.3,9.3-9.3&#10;&#9;&#9;&#9;&#9;C690.1,523,694.3,527.2,694.3,532.4z" style="fill: rgb(245, 245, 245);"/>
		</g>
	</g>
<g transform="matrix(1, 0, 0, 1, 0, 0)">
		<g>
			<path d="M 597 946.5999755859375 L 563.5 946.5999755859375 L 525.9000244140625 1136.300048828125 L 546.9000244140625 1136.300048828125 Z" class="st14" style="fill: rgb(82, 47, 18);"/>
			<path class="st2" d="M547.3,1136.8h-22l37.8-190.7h34.6L547.3,1136.8z M526.4,1135.8h20.1l49.8-188.7h-32.5L526.4,1135.8z" style="fill: rgb(66, 36, 5);"/>
		</g>
		<g>
			<path d="M 753.4000244140625 946.5999755859375 L 787 946.5999755859375 L 824.5999755859375 1136.300048828125 L 803.5 1136.300048828125 Z" class="st14" style="fill: rgb(82, 47, 18);"/>
			<path class="st2" d="M825.2,1136.8h-22l-50.4-190.7h34.6l0.1,0.4L825.2,1136.8z M803.9,1135.8H824l-37.5-188.7h-32.5&#10;&#9;&#9;&#9;&#9;L803.9,1135.8z" style="fill: rgb(66, 36, 5);"/>
		</g>
		<g>
			<path d="M 573.7999877929688 946.5999755859375 L 540.2999877929688 946.5999755859375 L 502.70001220703125 1136.300048828125 L 523.7000122070312 1136.300048828125 Z" class="st1" style="fill: rgb(106, 64, 34);"/>
			<path class="st2" d="M524.1,1136.8h-22l37.8-190.7h34.6L524.1,1136.8z M503.3,1135.8h20.1l49.8-188.7h-32.5L503.3,1135.8z" style="fill: rgb(66, 36, 5);"/>
		</g>
		<g>
			<path d="M 773.5999755859375 946.5999755859375 L 807.0999755859375 946.5999755859375 L 844.7999877929688 1136.300048828125 L 823.7000122070312 1136.300048828125 Z" class="st1" style="fill: rgb(106, 64, 34);"/>
			<path class="st2" d="M845.4,1136.8h-22L773,946.1h34.6l0.1,0.4L845.4,1136.8z M824.1,1135.8h20.1l-37.5-188.7h-32.5L824.1,1135.8&#10;&#9;&#9;&#9;&#9;z" style="fill: rgb(66, 36, 5);"/>
		</g>
		<g>
			<path class="st15" d="M804.4,946.6H542.6c-14.5,0-26.3-11.8-26.3-26.3v0c0-14.5,11.8-26.3,26.3-26.3h261.8&#10;&#9;&#9;&#9;&#9;c14.5,0,26.3,11.8,26.3,26.3v0C830.7,934.8,818.9,946.6,804.4,946.6z" style="fill: rgb(184, 53, 53);"/>
		</g>
		<g>
			<path class="st16" d="M847.4,846.7l-1.1-149c-0.4-49.1-40.3-88.8-89.4-88.8H588.7c-49.8,0-90,40.6-89.4,90.4l1.6,147.4&#10;&#9;&#9;&#9;&#9;c0,50,14.6,74.4,57,74.4h19.6h19.6h154H764h26.4C832.8,921.1,847.4,891.5,847.4,846.7z" style="fill: rgb(232, 69, 69);"/>
		</g>
		<g>
			<path class="st17" d="M846.3,697.7c-0.2-23.7-9.6-45.2-24.8-61.1c3.3,9.3,5.2,19.2,5.3,29.6l1.1,149c0,44.8-14.6,74.4-57,74.4&#10;&#9;&#9;&#9;&#9;h-26.4h-12.8h-154H558h-19.6c-14.4,0-25.6-2.8-34.1-8.5c6.4,26.8,22.5,40,53.6,40h19.6h19.6h154H764h26.4c42.4,0,57-29.6,57-74.4&#10;&#9;&#9;&#9;&#9;L846.3,697.7z" style="fill: rgb(201, 59, 59);"/>
		</g>
	</g>
<g transform="matrix(1, 0, 0, 1, 0, 0)">
		<g>
			<g>
				<g>
					<path d="M 158.300003 61.599998 H 229.600006 V 66.099998 H 158.300003 V 61.599998 Z" class="st18" style="fill: rgb(225, 180, 135);"/>
				</g>
			</g>
		</g>
		<g>
			<g>
				<g>
					<path d="M 105.300003 108.599998 H 176.600006 V 113.099998 H 105.300003 V 108.599998 Z" class="st18" style="fill: rgb(225, 180, 135);"/>
				</g>
			</g>
		</g>
		<g>
			<g>
				<g>
					<path d="M 141 127.599998 H 176.700001 V 132.099998 H 141 V 127.599998 Z" class="st18" style="fill: rgb(225, 180, 135);"/>
				</g>
			</g>
		</g>
		<g>
			<g>
				<g>
					<path d="M 215.899994 343.700012 H 242.999994 V 348.200012 H 215.899994 V 343.700012 Z" class="st18" style="fill: rgb(225, 180, 135);"/>
				</g>
			</g>
		</g>
		<g>
			<g>
				<g>
					<path d="M 267.100006 378 H 356.800003 V 382.5 H 267.100006 V 378 Z" class="st18" style="fill: rgb(225, 180, 135);"/>
				</g>
			</g>
		</g>
		<g>
			<g>
				<g>
					<path d="M 280.700012 397 H 356.800011 V 401.5 H 280.700012 V 397 Z" class="st18" style="fill: rgb(225, 180, 135);"/>
				</g>
			</g>
		</g>
		<g>
			<g>
				<g>
					<path d="M 987.599976 389.700012 H 1077.299973 V 394.200012 H 987.599976 V 389.700012 Z" class="st18" style="fill: rgb(225, 180, 135);"/>
				</g>
			</g>
		</g>
		<g>
			<g>
				<g>
					<path d="M 1001.200012 408.700012 H 1077.300011 V 413.200012 H 1001.200012 V 408.700012 Z" class="st18" style="fill: rgb(225, 180, 135);"/>
				</g>
			</g>
		</g>
		<g>
			<g>
				<g>
					<path d="M 49 389 H 101.700001 V 393.5 H 49 V 389 Z" class="st18" style="fill: rgb(225, 180, 135);"/>
				</g>
			</g>
		</g>
		<g>
			<g>
				<g>
					<path d="M 86.300003 404.600006 H 112.700003 V 409.100006 H 86.300003 V 404.600006 Z" class="st18" style="fill: rgb(225, 180, 135);"/>
				</g>
			</g>
		</g>
		<g>
			<g>
				<g>
					<path d="M 1123 91.900002 H 1212.699997 V 96.400002 H 1123 V 91.900002 Z" class="st18" style="fill: rgb(225, 180, 135);"/>
				</g>
			</g>
		</g>
		<g>
			<g>
				<g>
					<path d="M 1136.599976 110.900002 H 1212.699974 V 115.400002 H 1136.599976 V 110.900002 Z" class="st18" style="fill: rgb(225, 180, 135);"/>
				</g>
			</g>
		</g>
		<g>
			<g>
				<g>
					<path d="M 1231.800049 40.5 H 1272.100048 V 47.2 H 1231.800049 V 40.5 Z" class="st18" style="fill: rgb(225, 180, 135);"/>
				</g>
			</g>
		</g>
		<g>
			<g>
				<g>
					<g>
						<g>
							<path d="M 1195.800049 421.700012 H 1236.100048 V 428.400012 H 1195.800049 V 421.700012 Z" class="st18" style="fill: rgb(225, 180, 135);"/>
						</g>
					</g>
				</g>
				<g>
					<g>
						<g>
							<path d="M 55.200001 547.900024 H 161.899998 V 554.600024 H 55.200001 V 547.900024 Z" class="st18" style="fill: rgb(225, 180, 135);"/>
						</g>
					</g>
				</g>
				<g>
					<g>
						<g>
							<path d="M 89.199997 569 H 195.899994 V 575.7 H 89.199997 V 569 Z" class="st18" style="fill: rgb(225, 180, 135);"/>
						</g>
					</g>
				</g>
				<g>
					<g>
						<g>
							<path d="M 1293.800049 400.200012 H 1334.100048 V 406.900012 H 1293.800049 V 400.200012 Z" class="st18" style="fill: rgb(225, 180, 135);"/>
						</g>
					</g>
				</g>
				<g>
					<g>
						<g>
							<path d="M 1314 428.399994 H 1334.200001 V 435.099994 H 1314 V 428.399994 Z" class="st18" style="fill: rgb(225, 180, 135);"/>
						</g>
					</g>
				</g>
			</g>
		</g>
	</g>
<g transform="matrix(1, 0, 0, 1, 0, 0)">
		<g>
			<g>
				<path d="M 1045 799 H 1230.100006 V 831.700001 H 1045 V 799 Z" class="st16" style="fill: rgb(232, 69, 69);"/>
			</g>
			<g>
				<path d="M 1213.799952 815.400024 A 8.1 8.1 0 0 1 1205.699951 823.500025 A 8.1 8.1 0 0 1 1197.599951 815.400024 A 8.1 8.1 0 0 1 1205.699951 807.300024 A 8.1 8.1 0 0 1 1213.799952 815.400024 Z" class="st6" style="fill: rgb(255, 255, 255);"/>
			</g>
			<g>
				<path d="M 1177 799 H 1185.7 V 831.700001 H 1177 V 799 Z" class="st6" style="fill: rgb(255, 255, 255);"/>
			</g>
			<g>
				<path d="M 1059.199951 799 H 1067.899951 V 831.700001 H 1059.199951 V 799 Z" class="st6" style="fill: rgb(255, 255, 255);"/>
			</g>
			<g>
				<path d="M 1081.099976 807.299988 H 1162.499977 V 823.399988 H 1081.099976 V 807.299988 Z" class="st6" style="fill: rgb(255, 255, 255);"/>
			</g>
		</g>
		<g>
			<g>
				<path d="M 1045 733.5 H 1230.100006 V 766.200001 H 1045 V 733.5 Z" class="st19" style="fill: rgb(154, 66, 144);"/>
			</g>
			<g>
				<path d="M 1213.799952 749.900024 A 8.1 8.1 0 0 1 1205.699951 758.000025 A 8.1 8.1 0 0 1 1197.599951 749.900024 A 8.1 8.1 0 0 1 1205.699951 741.800024 A 8.1 8.1 0 0 1 1213.799952 749.900024 Z" class="st6" style="fill: rgb(255, 255, 255);"/>
			</g>
			<g>
				<path d="M 1177 733.5 H 1185.7 V 766.200001 H 1177 V 733.5 Z" class="st6" style="fill: rgb(255, 255, 255);"/>
			</g>
			<g>
				<path d="M 1059.199951 733.5 H 1067.899951 V 766.200001 H 1059.199951 V 733.5 Z" class="st6" style="fill: rgb(255, 255, 255);"/>
			</g>
			<g>
				<path d="M 1081.099976 741.799988 H 1162.499977 V 757.899988 H 1081.099976 V 741.799988 Z" class="st6" style="fill: rgb(255, 255, 255);"/>
			</g>
		</g>
		<g>
			<g>
				<path d="M 1050.699951 700.799988 H 1235.799957 V 733.499989 H 1050.699951 V 700.799988 Z" class="st20" style="fill: rgb(0, 153, 216);"/>
			</g>
			<g>
				<path d="M 1219.500025 717.099976 A 8.1 8.1 0 0 1 1211.400024 725.199976 A 8.1 8.1 0 0 1 1203.300024 717.099976 A 8.1 8.1 0 0 1 1211.400024 708.999975 A 8.1 8.1 0 0 1 1219.500025 717.099976 Z" class="st6" style="fill: rgb(255, 255, 255);"/>
			</g>
			<g>
				<path d="M 1182.699951 700.799988 H 1191.399951 V 733.499989 H 1182.699951 V 700.799988 Z" class="st6" style="fill: rgb(255, 255, 255);"/>
			</g>
			<g>
				<path d="M 1064.900024 700.799988 H 1073.600024 V 733.499989 H 1064.900024 V 700.799988 Z" class="st6" style="fill: rgb(255, 255, 255);"/>
			</g>
			<g>
				<path d="M 1086.800049 709.099976 H 1168.20005 V 725.199976 H 1086.800049 V 709.099976 Z" class="st6" style="fill: rgb(255, 255, 255);"/>
			</g>
		</g>
		<g>
			<path d="M 1106.199951171875 795.4000244140625 L 1106.199951171875 769.7999877929688 L 1244.300048828125 769.7999877929688 L 1244.300048828125 766.2999877929688 L 1059.199951171875 766.2999877929688 L 1059.199951171875 799 L 1244.300048828125 799 L 1244.300048828125 795.4000244140625 Z" class="st21" style="fill: rgb(247, 194, 57);"/>
		</g>
		<g>
			<g>
				<path d="M 1072.199951 769.799988 H 1239.199951 V 795.399988 H 1072.199951 V 769.799988 Z" class="st6" style="fill: rgb(255, 255, 255);"/>
			</g>
		</g>
		<g>
			<g>
				<path d="M 1072.199951 769.799988 H 1239.199951 V 776.299988 H 1072.199951 V 769.799988 Z" class="st22" style="fill: rgb(214, 223, 208);"/>
			</g>
		</g>
	</g><g transform="matrix(1, 0, 0, 1, 0, 0)">
			<path d="M 185.60000610351562 975.7999877929688 L 185.60000610351562 950.2000122070312 L 323.70001220703125 950.2000122070312 L 323.70001220703125 946.5999755859375 L 138.60000610351562 946.5999755859375 L 138.60000610351562 979.4000244140625 L 323.70001220703125 979.4000244140625 L 323.70001220703125 975.7999877929688 Z" class="st23" style="fill: rgb(0, 140, 87);"/>
		</g><g transform="matrix(1, 0, 0, 1, 0, 0)">
				<path d="M 151.600006 950.200012 H 318.600006 V 975.800013 H 151.600006 V 950.200012 Z" class="st6" style="fill: rgb(255, 255, 255);"/>
			</g><g transform="matrix(1, 0, 0, 1, 0, 0)">
				<path d="M 151.600006 950.200012 H 318.600006 V 956.700012 H 151.600006 V 950.200012 Z" class="st22" style="fill: rgb(214, 223, 208);"/>
			</g><g transform="matrix(1, 0, 0, 1, 0, 0)">
			<path d="M 180.8000030517578 874.0999755859375 L 180.8000030517578 848.5 L 318.79998779296875 848.5 L 318.79998779296875 844.9000244140625 L 133.8000030517578 844.9000244140625 L 133.8000030517578 877.7000122070312 L 318.79998779296875 877.7000122070312 L 318.79998779296875 874.0999755859375 Z" class="st24" style="fill: rgb(234, 99, 52);"/>
		</g><g transform="matrix(1, 0, 0, 1, 0, 0)">
				<path d="M 146.800003 848.5 H 313.800003 V 874.1 H 146.800003 V 848.5 Z" class="st6" style="fill: rgb(255, 255, 255);"/>
			</g><g transform="matrix(1, 0, 0, 1, 0, 0)">
				<path d="M 146.800003 848.5 H 313.800003 V 855 H 146.800003 V 848.5 Z" class="st22" style="fill: rgb(214, 223, 208);"/>
			</g><g transform="matrix(1, 0, 0, 1, 0, 0)">
			<path d="M 165.5 941.7999877929688 L 165.5 906.7000122070312 L 286.29998779296875 906.7000122070312 L 286.29998779296875 901.9000244140625 L 124.30000305175781 901.9000244140625 L 124.30000305175781 946.5999755859375 L 286.29998779296875 946.5999755859375 L 286.29998779296875 941.7999877929688 Z" class="st25" style="fill: rgb(230, 29, 49);"/>
		</g><g transform="matrix(1, 0, 0, 1, 0, 0)">
				<path d="M 135.699997 906.700012 H 281.899994 V 941.700012 H 135.699997 V 906.700012 Z" class="st6" style="fill: rgb(255, 255, 255);"/>
			</g><g transform="matrix(1, 0, 0, 1, 0, 0)">
				<path d="M 135.699997 906.700012 H 281.899994 V 915.500012 H 135.699997 V 906.700012 Z" class="st22" style="fill: rgb(214, 223, 208);"/>
			</g><g transform="matrix(1, 0, 0, 1, 0, 0)">
			<path d="M 190.89999389648438 899.2999877929688 L 190.89999389648438 880.2999877929688 L 327.29998779296875 880.2999877929688 L 327.29998779296875 877.7000122070312 L 144.3000030517578 877.7000122070312 L 144.3000030517578 901.9000244140625 L 327.29998779296875 901.9000244140625 L 327.29998779296875 899.2999877929688 Z" class="st26" style="fill: rgb(72, 122, 189);"/>
		</g><g transform="matrix(1, 0, 0, 1, 0, 0)">
				<path d="M 157.199997 880.299988 H 322.300003 V 899.299988 H 157.199997 V 880.299988 Z" class="st6" style="fill: rgb(255, 255, 255);"/>
			</g><g transform="matrix(1, 0, 0, 1, 0, 0)">
				<path d="M 157.199997 880.299988 H 322.300003 V 885.099988 H 157.199997 V 880.299988 Z" class="st22" style="fill: rgb(214, 223, 208);"/>
			</g>
<g transform="matrix(1, 0, 0, 1, 0, 0)">
		<path class="st27" d="M229.8,290v-19.4h149v-9.7H230.1c-4.4,0-8.8,1.7-12.1,5c-3.3,3.3-5,7.7-5,12.1v4.6c0,4.4,1.7,8.8,5,12.1&#10;&#9;&#9;&#9;c3.3,3.3,7.7,5,12.1,5h148.7V290H229.8z" style="fill: rgb(103, 65, 121);"/>
	</g><g transform="matrix(1, 0, 0, 1, 0, 0)">
			<path d="M 227.300003 270.600006 H 374.300003 V 290.000006 H 227.300003 V 270.600006 Z" class="st6" style="fill: rgb(255, 255, 255);"/>
		</g><path d="M 227.300003 270.399994 H 248.400003 V 290.099995 H 227.300003 V 270.399994 Z" class="st28" style="fill: rgb(198, 198, 198);" transform="matrix(1, 0, 0, 1, 0, 0)"/><path class="st29" d="M397.4,227.1c-3.3-3.3-7.7-5-12.1-5H236.6v9.7H368v19.4H236.6v9.7h148.7c4.4,0,8.8-1.7,12.1-5&#10;&#9;&#9;&#9;c3.3-3.3,5-7.7,5-12.1v-4.6C402.4,234.8,400.8,230.4,397.4,227.1z" style="fill: rgb(0, 147, 106);" transform="matrix(1, 0, 0, 1, 0, 0)"/><g transform="matrix(1, 0, 0, 1, 0, 0)">
			<path d="M 239.399994 231.800003 H 376.5 V 251.200003 H 239.399994 V 231.800003 Z" class="st6" style="fill: rgb(255, 255, 255);"/>
		</g><path d="M 355.399994 231.5 H 376.499994 V 251.200001 H 355.399994 V 231.5 Z" class="st28" style="fill: rgb(198, 198, 198);" transform="matrix(1, 0, 0, 1, 0, 0)"/><path class="st30" d="M36.7,290.7v-19.4h149v-9.7H37c-4.4,0-8.8,1.7-12.1,5c-3.3,3.3-5,7.7-5,12.1v4.6c0,4.4,1.7,8.8,5,12.1&#10;&#9;&#9;&#9;c3.3,3.3,7.7,5,12.1,5h148.7v-9.7H36.7z" style="fill: rgb(163, 45, 45);" transform="matrix(1, 0, 0, 1, 0, 0)"/><g transform="matrix(1, 0, 0, 1, 0, 0)">
			<path d="M 34.200001 271.299988 H 181.200001 V 290.699987 H 34.200001 V 271.299988 Z" class="st6" style="fill: rgb(255, 255, 255);"/>
		</g><path d="M 34.200001 271.100006 H 55.300001 V 290.800007 H 34.200001 V 271.100006 Z" class="st28" style="fill: rgb(198, 198, 198);" transform="matrix(1, 0, 0, 1, 0, 0)"/><path class="st31" d="M176.2,227.8c-3.3-3.3-7.7-5-12.1-5H15.4v9.7h131.4v19.4H15.4v9.7h148.7c4.4,0,8.8-1.7,12.1-5&#10;&#9;&#9;&#9;c3.3-3.3,5-7.7,5-12.1v-4.6C181.2,235.5,179.6,231.1,176.2,227.8z" style="fill: rgb(0, 130, 185);" transform="matrix(1, 0, 0, 1, 0, 0)"/><g transform="matrix(1, 0, 0, 1, 0, 0)">
			<path d="M 18.200001 232.5 H 155.300007 V 251.9 H 18.200001 V 232.5 Z" class="st6" style="fill: rgb(255, 255, 255);"/>
		</g><path d="M 134.199997 232.199997 H 155.299997 V 251.899998 H 134.199997 V 232.199997 Z" class="st28" style="fill: rgb(198, 198, 198);" transform="matrix(1, 0, 0, 1, 0, 0)"/><path class="st32" d="M195,176.5c-3.3-4.6-7.7-6.9-12.1-6.9H34.2v8.2h131.4v36.9H34.2v8h148.7c4.4,0,8.8-2.3,12.1-6.9&#10;&#9;&#9;&#9;c3.3-4.6,5-10.6,5-16.6v-6.2C200,187.1,198.4,181.1,195,176.5z" style="fill: rgb(225, 146, 33);" transform="matrix(1, 0, 0, 1, 0, 0)"/><g transform="matrix(1, 0, 0, 1, 0, 0)">
			<path d="M 37 177.899994 H 174.100006 V 214.799995 H 37 V 177.899994 Z" class="st6" style="fill: rgb(255, 255, 255);"/>
		</g><path d="M 153 177.300003 H 174.1 V 214.700005 H 153 V 177.300003 Z" class="st28" style="fill: rgb(198, 198, 198);" transform="matrix(1, 0, 0, 1, 0, 0)"/><path d="M 24.9 300.399994 H 370.9 V 325.499994 H 24.9 V 300.399994 Z" class="st1" style="fill: rgb(106, 64, 34);" transform="matrix(1, 0, 0, 1, 0, 0)"/><path class="st2" d="M371.4,326H24.5v-26.1h346.9V326z M25.4,325h345v-24.1h-345V325z" style="fill: rgb(66, 36, 5);" transform="matrix(1, 0, 0, 1, 0, 0)"/>
<g transform="matrix(1, 0, 0, 1, 0, 0)">
		<g>
			<g>
				<path class="st33" d="M316.5,489.3c0.1-22.5-15.5-42.1-38.8-52.6c-23.4,10.5-39.1,30.1-39.2,52.5c-0.1,22.5,15.5,42.1,38.8,52.6&#10;&#9;&#9;&#9;&#9;&#9;C300.6,531.4,316.4,511.8,316.5,489.3z" style="fill: rgb(0, 104, 53);"/>
				<path class="st34" d="M277.3,542.4l-0.2-0.1c-24.2-10.9-39.2-31.3-39.1-53c0.1-21.8,15.2-42.1,39.5-53l0.2-0.1l0.2,0.1&#10;&#9;&#9;&#9;&#9;&#9;c24.2,10.9,39.2,31.3,39.1,53l0,0c-0.1,21.8-15.2,42.1-39.5,53L277.3,542.4z M277.6,437.3c-23.8,10.8-38.6,30.7-38.7,52&#10;&#9;&#9;&#9;&#9;&#9;c-0.1,21.3,14.6,41.3,38.3,52.1c23.8-10.8,38.6-30.7,38.7-52C316,468,301.4,448.1,277.6,437.3z" style="fill: rgb(0, 88, 43);"/>
			</g>
		</g>
		<g>
			<path class="st35" d="M343.1,513.2c11.8-16.4,14.5-36.3,8.7-52.1c-16.9-0.5-34.9,8.3-46.7,24.8c-11.8,16.4-14.5,36.3-8.7,52.1&#10;&#9;&#9;&#9;&#9;C313.3,538.5,331.2,529.7,343.1,513.2z" style="fill: rgb(0, 138, 74);"/>
			<path class="st34" d="M297.7,538.7c-0.5,0-0.9,0-1.3,0l-0.5,0l-0.2-0.4c-6.1-16.6-2.7-36.8,8.8-52.8c11.5-16,29.6-25.6,47.3-25.1&#10;&#9;&#9;&#9;&#9;l0.5,0l0.2,0.4c6.1,16.6,2.7,36.8-8.8,52.8l0,0C332.4,529.2,314.9,538.7,297.7,538.7z M296.8,537.4c17,0.4,34.5-9,45.7-24.5&#10;&#9;&#9;&#9;&#9;c11.1-15.5,14.5-35,8.8-51.1c-17.1-0.3-34.5,9-45.7,24.5C294.5,501.8,291.1,521.3,296.8,537.4z" style="fill: rgb(0, 88, 43);"/>
		</g>
		<g>
			<path class="st35" d="M212.1,513.2c-11.8-16.4-14.5-36.3-8.7-52.1c16.9-0.5,34.9,8.3,46.7,24.8c11.8,16.4,14.5,36.3,8.7,52.1&#10;&#9;&#9;&#9;&#9;C241.9,538.5,224,529.7,212.1,513.2z" style="fill: rgb(0, 138, 74);"/>
			<path class="st34" d="M257.5,538.7c-17.2,0-34.7-9.5-45.9-25.1l0,0c-11.5-16-14.9-36.2-8.8-52.8l0.2-0.4l0.5,0&#10;&#9;&#9;&#9;&#9;c17.6-0.5,35.7,9.1,47.3,25.1c11.5,16,14.9,36.2,8.8,52.8l-0.2,0.4l-0.5,0C258.4,538.7,257.9,538.7,257.5,538.7z M212.7,512.8&#10;&#9;&#9;&#9;&#9;c11.1,15.5,28.6,24.8,45.7,24.5c5.7-16.1,2.4-35.6-8.8-51.1c-11.1-15.5-28.6-24.8-45.7-24.5C198.2,477.8,201.5,497.4,212.7,512.8&#10;&#9;&#9;&#9;&#9;L212.7,512.8z" style="fill: rgb(0, 88, 43);"/>
		</g>
		<g>
			<g>
				<path class="st35" d="M306.3,510.8c0-24.9-11.5-46.7-28.7-58.4c-17.2,11.6-28.9,33.4-28.9,58.3c0,24.9,11.5,46.7,28.7,58.4&#10;&#9;&#9;&#9;&#9;&#9;C294.6,557.4,306.3,535.7,306.3,510.8z" style="fill: rgb(0, 138, 74);"/>
				<path class="st34" d="M277.4,569.9l-0.4-0.3c-17.9-12.2-29-34.8-29-58.9c0-24.2,11.2-46.7,29.2-58.8l0.4-0.3l0.4,0.3&#10;&#9;&#9;&#9;&#9;&#9;c17.9,12.2,29,34.8,29,58.9c0,24.2-11.2,46.7-29.2,58.8L277.4,569.9z M277.6,453.2c-17.4,11.9-28.2,33.9-28.2,57.5&#10;&#9;&#9;&#9;&#9;&#9;c0,23.6,10.7,45.6,28,57.6c17.4-11.9,28.2-33.9,28.2-57.5l0,0C305.7,487.2,294.9,465.2,277.6,453.2z" style="fill: rgb(0, 88, 43);"/>
			</g>
		</g>
	</g><path d="M 334.20001220703125 540.0999755859375 L 220.89999389648438 540.0999755859375 L 223.5 562.4000244140625 L 331.70001220703125 562.4000244140625 Z" class="st36" style="fill: rgb(87, 12, 10);" transform="matrix(1, 0, 0, 1, 0, 0)"/><path d="M 223.5 562.4000244140625 L 229.89999389648438 618.9000244140625 L 325.20001220703125 618.9000244140625 L 331.70001220703125 562.4000244140625 Z" class="st37" style="fill: rgb(154, 46, 47);" transform="matrix(1, 0, 0, 1, 0, 0)"/><path d="M 208.899994 522.900024 H 346.199997 V 549.000025 H 208.899994 V 522.900024 Z" class="st37" style="fill: rgb(154, 46, 47);" transform="matrix(1, 0, 0, 1, 0, 0)"/>
<g transform="matrix(1, 0, 0, 1, 0, 0)">
		<g>
			<path class="st8" d="M906.3,621H462.1v-13.2c0-2.2,0.8-4.4,2.5-6c1.7-1.7,3.9-2.5,6.1-2.5h427.1c2.2,0,4.4,0.8,6,2.5&#10;&#9;&#9;&#9;&#9;c1.7,1.7,2.5,3.9,2.5,6V621z" style="fill: rgb(43, 46, 74);"/>
		</g>
		<g>
			<g>
				<path class="st6" d="M512.6,599.3h-21.2v-7.6c0-1.3,0.5-2.6,1.5-3.6c1-1,2.3-1.5,3.6-1.5h11c1.3,0,2.6,0.5,3.6,1.5&#10;&#9;&#9;&#9;&#9;&#9;c1,1,1.5,2.3,1.5,3.6V599.3z" style="fill: rgb(255, 255, 255);"/>
			</g>
			<g>
				<path class="st6" d="M543,599.3h-21.2v-7.6c0-1.3,0.5-2.6,1.5-3.6c1-1,2.3-1.5,3.6-1.5h11c1.3,0,2.6,0.5,3.6,1.5&#10;&#9;&#9;&#9;&#9;&#9;c1,1,1.5,2.3,1.5,3.6V599.3z" style="fill: rgb(255, 255, 255);"/>
			</g>
			<g>
				<path class="st6" d="M573.3,599.3h-21.2v-7.6c0-1.3,0.5-2.6,1.5-3.6c1-1,2.3-1.5,3.6-1.5h11c1.3,0,2.6,0.5,3.6,1.5&#10;&#9;&#9;&#9;&#9;&#9;c1,1,1.5,2.3,1.5,3.6V599.3z" style="fill: rgb(255, 255, 255);"/>
			</g>
			<g>
				<path class="st6" d="M603.7,599.3h-21.2v-7.6c0-1.3,0.5-2.6,1.5-3.6c1-1,2.3-1.5,3.6-1.5h11c1.3,0,2.6,0.5,3.6,1.5&#10;&#9;&#9;&#9;&#9;&#9;c1,1,1.5,2.3,1.5,3.6V599.3z" style="fill: rgb(255, 255, 255);"/>
			</g>
			<g>
				<path class="st6" d="M634.1,599.3h-21.2v-7.6c0-1.3,0.5-2.6,1.5-3.6c1-1,2.3-1.5,3.6-1.5h11c1.3,0,2.6,0.5,3.6,1.5&#10;&#9;&#9;&#9;&#9;&#9;c1,1,1.5,2.3,1.5,3.6V599.3z" style="fill: rgb(255, 255, 255);"/>
			</g>
			<g>
				<path class="st6" d="M664.5,599.3h-21.2v-7.6c0-1.3,0.5-2.6,1.5-3.6c1-1,2.3-1.5,3.6-1.5h11c1.3,0,2.6,0.5,3.6,1.5&#10;&#9;&#9;&#9;&#9;&#9;c1,1,1.5,2.3,1.5,3.6V599.3z" style="fill: rgb(255, 255, 255);"/>
			</g>
			<g>
				<path class="st6" d="M694.8,599.3h-21.2v-7.6c0-1.3,0.5-2.6,1.5-3.6c1-1,2.3-1.5,3.6-1.5h11c1.3,0,2.6,0.5,3.6,1.5&#10;&#9;&#9;&#9;&#9;&#9;c1,1,1.5,2.3,1.5,3.6V599.3z" style="fill: rgb(255, 255, 255);"/>
			</g>
			<g>
				<path class="st6" d="M725.2,599.3H704v-7.6c0-1.3,0.5-2.6,1.5-3.6c1-1,2.3-1.5,3.6-1.5h11c1.3,0,2.6,0.5,3.6,1.5&#10;&#9;&#9;&#9;&#9;&#9;c1,1,1.5,2.3,1.5,3.6V599.3z" style="fill: rgb(255, 255, 255);"/>
			</g>
			<g>
				<path class="st6" d="M755.6,599.3h-21.2v-7.6c0-1.3,0.5-2.6,1.5-3.6c1-1,2.3-1.5,3.6-1.5h11c1.3,0,2.6,0.5,3.6,1.5&#10;&#9;&#9;&#9;&#9;&#9;c1,1,1.5,2.3,1.5,3.6V599.3z" style="fill: rgb(255, 255, 255);"/>
			</g>
			<g>
				<path class="st6" d="M786,599.3h-21.2v-7.6c0-1.3,0.5-2.6,1.5-3.6c1-1,2.3-1.5,3.6-1.5h11c1.3,0,2.6,0.5,3.6,1.5&#10;&#9;&#9;&#9;&#9;&#9;c1,1,1.5,2.3,1.5,3.6V599.3z" style="fill: rgb(255, 255, 255);"/>
			</g>
			<g>
				<path class="st6" d="M816.3,599.3h-21.2v-7.6c0-1.3,0.5-2.6,1.5-3.6c1-1,2.3-1.5,3.6-1.5h11c1.3,0,2.6,0.5,3.6,1.5&#10;&#9;&#9;&#9;&#9;&#9;c1,1,1.5,2.3,1.5,3.6V599.3z" style="fill: rgb(255, 255, 255);"/>
			</g>
			<g>
				<path class="st6" d="M846.7,599.3h-21.2v-7.6c0-1.3,0.5-2.6,1.5-3.6c1-1,2.3-1.5,3.6-1.5h11c1.3,0,2.6,0.5,3.6,1.5&#10;&#9;&#9;&#9;&#9;&#9;c1,1,1.5,2.3,1.5,3.6V599.3z" style="fill: rgb(255, 255, 255);"/>
			</g>
			<g>
				<path class="st6" d="M877.1,599.3h-21.2v-7.6c0-1.3,0.5-2.6,1.5-3.6c1-1,2.3-1.5,3.6-1.5h11c1.3,0,2.6,0.5,3.6,1.5&#10;&#9;&#9;&#9;&#9;&#9;c1,1,1.5,2.3,1.5,3.6V599.3z" style="fill: rgb(255, 255, 255);"/>
			</g>
		</g>
	</g>
<g transform="matrix(1, 0, 0, 1, 0, 0)">
		<g>
			<g>
				
					<path d="M 1132.900024 449.200012 H 1139.800025 V 500.100014 H 1132.900024 V 449.200012 Z" transform="matrix(0.9953 9.697025e-02 -9.697025e-02 0.9953 51.3782 -107.9568)" class="st38" style="fill: rgb(0, 49, 87);"/>
			</g>
			<g>
				<g>
					
						<path d="M 1116.199951 452 H 1129.299952 V 572.199997 H 1116.199951 V 452 Z" transform="matrix(0.9955 9.527773e-02 -9.527773e-02 0.9955 53.8979 -104.643)" class="st39" style="fill: rgb(0, 122, 192);"/>
				</g>
				<g>
					<path d="M 1115.699951171875 585.5 L 1110.199951171875 571.2999877929688 L 1123.800048828125 572.5999755859375 Z" class="st40" style="fill: rgb(84, 110, 122);"/>
				</g>
				<g>
					<path class="st38" d="M1135.7,445.8c0.1-1.3-0.2-2.7-1.1-3.8c-0.9-1.1-2.2-1.7-3.5-1.8l-2.8-0.3c-1.3-0.1-2.7,0.2-3.8,1.1&#10;&#9;&#9;&#9;&#9;&#9;&#9;c-1.1,0.9-1.7,2.2-1.8,3.5l-0.7,7.1l13.1,1.3L1135.7,445.8z" style="fill: rgb(0, 49, 87);"/>
				</g>
			</g>
		</g>
		<g>
			<g>
				
					<path d="M 1053 468.5 H 1066.1 V 588.699997 H 1053 V 468.5 Z" transform="matrix(0.9722 -0.234 0.234 0.9722 -94.2656 262.5986)" class="st41" style="fill: rgb(250, 166, 59);"/>
			</g>
			<g>
				<path class="st42" d="M1050.2,461.7c-0.3-1.3-1.1-2.4-2.3-3.2c-1.2-0.7-2.6-0.9-3.9-0.6l-2.8,0.7c-1.3,0.3-2.4,1.1-3.2,2.3&#10;&#9;&#9;&#9;&#9;&#9;c-0.7,1.2-0.9,2.6-0.6,3.9l1.7,6.9l12.8-3.1L1050.2,461.7z" style="fill: rgb(242, 101, 55);"/>
			</g>
		</g>
		<g>
			<g>
				
					<path d="M 1068.5 461.899994 H 1081.6 V 582.099991 H 1068.5 V 461.899994 Z" transform="matrix(-0.9894 0.1455 -0.1455 -0.9894 2214.6257 882.0606)" class="st43" style="fill: rgb(161, 113, 67);"/>
			</g>
			<g>
				<path d="M 1064.4000244140625 449.6000061035156 L 1063.300048828125 453.1000061035156 L 1066.5999755859375 452.70001220703125 Z" class="st44" style="fill: rgb(35, 31, 32);"/>
			</g>
			<g>
				<path d="M 1072.800048828125 461.6000061035156 L 1066.5999755859375 452.70001220703125 L 1063.300048828125 453.1000061035156 L 1059.800048828125 463.5 Z" class="st6" style="fill: rgb(255, 255, 255);"/>
			</g>
		</g>
		<g>
			<g>
				
					<path d="M 1089.199951 449.100006 H 1102.299952 V 569.300003 H 1089.199951 V 449.100006 Z" transform="matrix(0.9937 0.112 -0.112 0.9937 63.9433 -119.5583)" class="st45" style="fill: rgb(239, 70, 57);"/>
			</g>
			<g>
				<path d="M 1087.5 582.5 L 1082.199951171875 568.0999755859375 L 1095.800048828125 569.7000122070312 Z" class="st40" style="fill: rgb(84, 110, 122);"/>
			</g>
			<g>
				<path class="st46" d="M1109.8,443.1c0.1-1.3-0.2-2.7-1.1-3.8c-0.9-1.1-2.1-1.8-3.4-1.9l-2.8-0.3c-1.3-0.1-2.7,0.2-3.8,1.1&#10;&#9;&#9;&#9;&#9;&#9;c-1.1,0.9-1.8,2.1-1.9,3.4l-0.8,7.1l13,1.5L1109.8,443.1z" style="fill: rgb(249, 168, 104);"/>
			</g>
		</g>
		<g>
			<g>
				<path d="M 1057.5 619.4000244140625 L 1123.199951171875 619.4000244140625 L 1138.5 512.7000122070312 L 1042.199951171875 512.7000122070312 Z" class="st6" style="fill: rgb(255, 255, 255);"/>
			</g>
		</g>
	</g>
<g transform="matrix(1, 0, 0, 1, 0, 0)">
		<g>
			<g>
				<path d="M 1130.599976 154.199997 H 1335.699982 V 308.800003 H 1130.599976 V 154.199997 Z" class="st47" style="fill: rgb(194, 214, 239);"/>
			</g>
			<g>
				<path class="st48" d="M1273.1,248.8c-8.9,1.5-17.7-2.7-24.9-8.1c-7.2-5.4-13.3-12.1-20.8-17.1c-9.7-6.4-21.6-9.4-33.2-8.6&#10;&#9;&#9;&#9;&#9;&#9;c-9.2,0.7-18.1,3.7-27.3,5.1c-9.2,1.4-19.3,0.8-26.5-5c-2.7-2.1-5.1-5-8.5-5.5v99.1h141.3V248.8z" style="fill: rgb(137, 196, 234);"/>
			</g>
			<g>
				<path class="st49" d="M1128.9,308.8c7.2-12.9,15.9-30.2,26.9-39.6c11-9.4,24.5-16.1,38.7-17.2c13.6-1,27.4,3,40.8,0.5&#10;&#9;&#9;&#9;&#9;&#9;c12.6-2.3,23.6-10.2,33.3-18.9c9.7-8.7,18.6-18.5,29.2-25.9s23.5-12.5,36.1-10.1v111.6L1128.9,308.8z" style="fill: rgb(168, 206, 237);"/>
			</g>
			<g>
				<path d="M 1130.599976 151.100006 H 1335.699982 V 312 H 1130.599976 V 151.100006 Z" class="st50" style="fill: none;"/>
			</g>
			<g>
				<path class="st6" d="M1340.7,317.5h-215.3c-1.5,0-2.7-1.2-2.7-2.8V148.2c0-1.5,1.2-2.8,2.7-2.8h215.3c1.5,0,2.7,1.2,2.7,2.8&#10;&#9;&#9;&#9;&#9;&#9;v166.5C1343.4,316.3,1342.2,317.5,1340.7,317.5z M1132.3,308.8h201.5V154.2h-201.5V308.8z" style="fill: rgb(255, 255, 255);"/>
			</g>
		</g>
	</g>
<g transform="matrix(1, 0, 0, 1, 0, 0)">
		<g>
			<g>
				<path d="M 1277.5 464.1000061035156 L 1267.4000244140625 460.29998779296875 L 1234 592.7999877929688 L 1244.0999755859375 596.5999755859375 Z" class="st51" style="fill: rgb(93, 93, 93);"/>
			</g>
		</g>
		<g>
			<g>
				<path d="M 1234 313 L 1244.0999755859375 309.20001220703125 L 1277.5 441.70001220703125 L 1267.4000244140625 445.5 Z" class="st51" style="fill: rgb(93, 93, 93);"/>
			</g>
		</g>
		<g>
			<path class="st6" d="M1172.1,609.1c0-6.6,2.5-13.1,7.5-18.2c5-5,11.6-7.5,18.2-7.5h70.6c6.6,0,13.1,2.5,18.2,7.5&#10;&#9;&#9;&#9;&#9;c5,5,7.5,11.6,7.5,18.2v9.2h-121.9V609.1z" style="fill: rgb(255, 255, 255);"/>
		</g>
		<g>
			<path d="M 1289.500025 452.899994 A 16.6 16.6 0 0 1 1272.900024 469.499994 A 16.6 16.6 0 0 1 1256.300024 452.899994 A 16.6 16.6 0 0 1 1272.900024 436.299994 A 16.6 16.6 0 0 1 1289.500025 452.899994 Z" class="st52" style="fill: rgb(156, 150, 150);"/>
		</g>
		<g>
			<path d="M 1280.800025 452.899994 A 7.9 7.9 0 0 1 1272.900024 460.799994 A 7.9 7.9 0 0 1 1265.000024 452.899994 A 7.9 7.9 0 0 1 1272.900024 444.999994 A 7.9 7.9 0 0 1 1280.800025 452.899994 Z" class="st6" style="fill: rgb(255, 255, 255);"/>
		</g>
		<g>
			<path class="st6" d="M1251.9,277.9c2.6,6,2.8,13.1,0.2,19.6c-2.6,6.6-7.7,11.5-13.7,14l-23.5,10l-24.2-56.7l23.5-10&#10;&#9;&#9;&#9;&#9;c6-2.6,13.1-2.9,19.6-0.2c6.6,2.6,11.5,7.7,14,13.7L1251.9,277.9z" style="fill: rgb(255, 255, 255);"/>
		</g>
		<g>
			<path class="st53" d="M1137.8,336.2c2.8,6,3.2,13,0.8,19.6c-2.5,6.7-7.4,11.7-13.3,14.4l0,0c-12.8,5.9-28,0.3-34-12.5l-4.4-9.5&#10;&#9;&#9;&#9;&#9;c-5.9-12.8-0.3-28,12.5-34l0,0c6-2.8,13-3.2,19.6-0.8c6.6,2.5,11.7,7.4,14.4,13.3L1137.8,336.2z" style="fill: rgb(255, 248, 170);"/>
		</g>
		<g>
			<path class="st10" d="M1216.6,286.2c-26.2-60.2-71.9-52.8-140-28.9l71.6,164.8C1212.2,388.5,1242.8,346.4,1216.6,286.2z" style="fill: rgb(241, 90, 36);"/>
		</g>
	</g>
<path class="st16" d="M1052.6,155.4H313V38.3h739.7V155.4z M317.3,151.1h731V42.7h-731V151.1z" style="fill: rgb(232, 69, 69);" transform="matrix(1, 0, 0, 1, 0, 0)"/>
<path d="M 26.709999084472656 -1.3999996185302734 L 27.1299991607666 9.139999389648438 L 26.329999923706055 9.139999389648438 C 25.10333251953125 5.420000076293945 24.013334274291992 2.8799991607666016 23.059999465942383 1.5200004577636719 C 22.106666564941406 0.15999984741210938 20.733333587646484 -0.5200004577636719 18.940000534057617 -0.5200004577636719 L 18.440000534057617 -0.5200004577636719 L 18.440000534057617 27.1200008392334 L 22.010000228881836 27.1200008392334 L 22.010000228881836 28 L 6.679999828338623 28 L 6.679999828338623 27.1200008392334 L 10.25 27.1200008392334 L 10.25 -0.5200004577636719 L 9.699999809265137 -0.5200004577636719 C 7.9066667556762695 -0.5200004577636719 6.519999980926514 0.18666648864746094 5.539999961853027 1.6000003814697266 C 4.559999942779541 3.013334274291992 3.4833333492279053 5.526666641235352 2.309999942779541 9.139999389648438 L 1.5099999904632568 9.139999389648438 L 1.9299999475479126 -1.3999996185302734 L 26.709999084472656 -1.3999996185302734 ZM 37.63444519042969 28.420000076293945 C 34.02111053466797 28.420000076293945 31.311111450195312 27.489999771118164 29.504444122314453 25.630001068115234 C 27.697776794433594 23.76333236694336 26.794443130493164 21.17333221435547 26.794443130493164 17.860000610351562 C 26.794443130493164 14.539999961853027 27.811111450195312 11.996665954589844 29.844444274902344 10.229999542236328 C 31.871110916137695 8.469999313354492 34.45111083984375 7.590000152587891 37.584442138671875 7.590000152587891 C 43.94444274902344 7.590000152587891 46.997779846191406 10.780000686645508 46.74444580078125 17.15999984741211 L 34.904441833496094 17.15999984741211 L 34.904441833496094 18.799999237060547 C 34.904441833496094 21.546667098999023 35.25444412231445 23.619998931884766 35.954444885253906 25.020000457763672 C 36.654441833496094 26.420000076293945 37.87110900878906 27.1200008392334 39.60444259643555 27.1200008392334 C 42.851112365722656 27.1200008392334 44.97777557373047 25.383333206176758 45.98444366455078 21.90999984741211 L 46.74444580078125 22.040000915527344 C 46.21111297607422 24.053333282470703 45.2511100769043 25.619998931884766 43.864444732666016 26.739999771118164 C 42.47777557373047 27.860000610351562 40.4011116027832 28.420000076293945 37.63444519042969 28.420000076293945 M 34.94444274902344 16.31999969482422 L 39.264442443847656 16.31999969482422 L 39.264442443847656 14.270000457763672 C 39.264442443847656 11.996665954589844 39.13444519042969 10.446666717529297 38.87444305419922 9.620000839233398 C 38.6077766418457 8.799999237060547 38.07444381713867 8.389999389648438 37.274444580078125 8.389999389648438 C 36.47444534301758 8.389999389648438 35.887779235839844 8.829999923706055 35.514442443847656 9.709999084472656 C 35.13444519042969 10.59000015258789 34.94444274902344 12.109999656677246 34.94444274902344 14.270000457763672 L 34.94444274902344 16.31999969482422 ZM 58.33515167236328 18.130001068115234 L 59.555152893066406 18.130001068115234 L 59.555152893066406 14.899999618530273 C 59.555152893066406 12.239999771118164 59.408485412597656 10.453332901000977 59.115150451660156 9.540000915527344 C 58.82181930541992 8.633333206176758 58.255149841308594 8.180000305175781 57.41515350341797 8.180000305175781 C 56.908485412597656 8.180000305175781 56.451820373535156 8.309999465942383 56.04515075683594 8.569999694824219 C 55.638484954833984 8.836666107177734 55.435150146484375 9.203332901000977 55.435150146484375 9.670000076293945 C 55.435150146484375 10.129999160766602 55.51848602294922 10.59666633605957 55.685150146484375 11.069999694824219 L 56.73515319824219 11.069999694824219 C 56.96181869506836 11.663333892822266 57.07514953613281 12.369999885559082 57.07514953613281 13.1899995803833 C 57.07514953613281 14.016666412353516 56.72515106201172 14.733333587646484 56.025150299072266 15.34000015258789 C 55.32514953613281 15.9399995803833 54.44181823730469 16.239999771118164 53.375152587890625 16.239999771118164 C 50.96848678588867 16.239999771118164 49.76515197753906 15.076666831970215 49.76515197753906 12.75 C 49.76515197753906 9.309999465942383 52.69181823730469 7.590000152587891 58.54515075683594 7.590000152587891 C 61.87848663330078 7.590000152587891 64.18181610107422 8.156665802001953 65.45515441894531 9.290000915527344 C 66.72848510742188 10.423334121704102 67.36515045166016 12.50333309173584 67.36515045166016 15.529999732971191 L 67.36515045166016 24.049999237060547 C 67.36515045166016 25.510000228881836 67.77182006835938 26.239999771118164 68.58515167236328 26.239999771118164 C 69.53848266601562 26.239999771118164 70.0984878540039 24.796667098999023 70.26515197753906 21.90999984741211 L 70.89514923095703 21.950000762939453 C 70.78181457519531 24.41666603088379 70.3184814453125 26.110000610351562 69.5051498413086 27.030000686645508 C 68.69181823730469 27.956666946411133 67.36181640625 28.420000076293945 65.51515197753906 28.420000076293945 C 62.1551513671875 28.420000076293945 60.22515106201172 27.383333206176758 59.72515106201172 25.309999465942383 C 59.35848617553711 26.376667022705078 58.81181716918945 27.15999984741211 58.08515167236328 27.65999984741211 C 57.35848617553711 28.16666603088379 56.29515075683594 28.420000076293945 54.8951530456543 28.420000076293945 C 50.74848556518555 28.420000076293945 48.67515182495117 26.726667404174805 48.67515182495117 23.34000015258789 C 48.67515182495117 21.35333251953125 49.465152740478516 19.98666763305664 51.04515075683594 19.239999771118164 C 52.63181686401367 18.5 55.06181716918945 18.130001068115234 58.33515167236328 18.130001068115234 M 56.6551513671875 23.299999237060547 C 56.6551513671875 24.753334045410156 56.73181915283203 25.690000534057617 56.88515090942383 26.110000610351562 C 57.038482666015625 26.530000686645508 57.331817626953125 26.739999771118164 57.76515197753906 26.739999771118164 C 58.198486328125 26.739999771118164 58.60515213012695 26.383333206176758 58.98515319824219 25.670000076293945 C 59.365150451660156 24.956666946411133 59.555152893066406 23.969999313354492 59.555152893066406 22.709999084472656 L 59.555152893066406 18.799999237060547 L 59.255149841308594 18.799999237060547 C 57.521820068359375 18.799999237060547 56.6551513671875 20.073333740234375 56.6551513671875 22.619998931884766 L 56.6551513671875 23.299999237060547 ZM 71.31178283691406 8.010000228881836 L 81.4317855834961 8.010000228881836 L 81.4317855834961 11.870000839233398 C 82.35845184326172 9.016666412353516 84.3951187133789 7.590000152587891 87.54178619384766 7.590000152587891 C 90.69511413574219 7.590000152587891 92.60845184326172 9.100000381469727 93.28178405761719 12.119999885559082 C 94.26178741455078 9.100000381469727 96.31845092773438 7.590000152587891 99.4517822265625 7.590000152587891 C 103.56511688232422 7.590000152587891 105.62178039550781 9.926666259765625 105.62178039550781 14.600000381469727 L 105.62178039550781 27.239999771118164 L 107.98178100585938 27.239999771118164 L 107.98178100585938 28 L 96.34178161621094 28 L 96.34178161621094 27.239999771118164 L 97.81178283691406 27.239999771118164 L 97.81178283691406 13.59000015258789 C 97.81178283691406 11.463333129882812 97.63178253173828 10.219999313354492 97.27178192138672 9.860000610351562 C 97.09844970703125 9.686666488647461 96.87178039550781 9.600000381469727 96.59178161621094 9.600000381469727 C 95.78511810302734 9.600000381469727 95.07178497314453 10.14666748046875 94.4517822265625 11.239999771118164 C 93.83845520019531 12.333333015441895 93.53178405761719 13.720000267028809 93.53178405761719 15.399999618530273 L 93.53178405761719 27.239999771118164 L 95.04178619384766 27.239999771118164 L 95.04178619384766 28 L 84.25178527832031 28 L 84.25178527832031 27.239999771118164 L 85.72178649902344 27.239999771118164 L 85.72178649902344 13.59000015258789 C 85.72178649902344 11.463333129882812 85.5384521484375 10.219999313354492 85.17178344726562 9.860000610351562 C 85.00511932373047 9.686666488647461 84.78178405761719 9.600000381469727 84.50178527832031 9.600000381469727 C 83.71511840820312 9.600000381469727 83.00845336914062 10.196666717529297 82.38178253173828 11.389999389648438 C 81.74845123291016 12.576666831970215 81.4317855834961 13.99666690826416 81.4317855834961 15.649999618530273 L 81.4317855834961 27.239999771118164 L 82.94178771972656 27.239999771118164 L 82.94178771972656 28 L 71.31178283691406 28 L 71.31178283691406 27.239999771118164 L 73.62178802490234 27.239999771118164 L 73.62178802490234 8.760000228881836 L 71.31178283691406 8.760000228881836 L 71.31178283691406 8.010000228881836 ZM 117.50511932373047 4.559999465942383 C 117.50511932373047 2.7133331298828125 118.3451156616211 1.1800003051757812 120.02511596679688 -0.04000091552734375 C 121.70511627197266 -1.2533340454101562 124.19844818115234 -1.8600006103515625 127.50511932373047 -1.8600006103515625 C 133.89178466796875 -1.8600006103515625 137.08511352539062 0.3666667938232422 137.08511352539062 4.819999694824219 C 137.08511352539062 6.6399993896484375 136.33511352539062 8.143333435058594 134.83511352539062 9.329999923706055 C 133.33511352539062 10.523332595825195 131.18511962890625 11.356666564941406 128.38511657714844 11.829999923706055 L 128.38511657714844 11.90999984741211 C 131.8584442138672 12.16333293914795 134.42178344726562 12.976666450500488 136.0751190185547 14.350000381469727 C 137.72845458984375 15.723333358764648 138.55511474609375 17.5 138.55511474609375 19.68000030517578 C 138.55511474609375 22.373332977294922 137.46844482421875 24.503334045410156 135.2951202392578 26.06999969482422 C 133.12844848632812 27.636667251586914 130.11178588867188 28.420000076293945 126.2451171875 28.420000076293945 C 124.73178100585938 28.420000076293945 123.32511901855469 28.253334045410156 122.02511596679688 27.920000076293945 C 120.7251205444336 27.579999923706055 119.56178283691406 26.913333892822266 118.53511810302734 25.920000076293945 C 117.5151138305664 24.926666259765625 117.00511932373047 23.74333381652832 117.00511932373047 22.369998931884766 C 117.00511932373047 20.996665954589844 117.33511352539062 19.933334350585938 117.9951171875 19.18000030517578 C 118.64845275878906 18.426666259765625 119.5517807006836 18.049999237060547 120.70511627197266 18.049999237060547 C 121.8517837524414 18.049999237060547 122.76178741455078 18.350000381469727 123.43511962890625 18.950000762939453 C 124.1017837524414 19.549999237060547 124.43511962890625 20.26333236694336 124.43511962890625 21.09000015258789 C 124.43511962890625 21.91666603088379 124.32511901855469 22.623332977294922 124.10511779785156 23.209999084472656 L 122.80511474609375 23.209999084472656 C 122.63178253173828 23.656665802001953 122.54512023925781 24.119998931884766 122.54512023925781 24.600000381469727 C 122.54512023925781 26.586666107177734 123.72178649902344 27.579999923706055 126.07511901855469 27.579999923706055 C 127.72845458984375 27.579999923706055 128.85511779785156 26.950000762939453 129.4551239013672 25.690000534057617 C 130.06178283691406 24.43000030517578 130.3651123046875 22.610000610351562 130.3651123046875 20.229999542236328 C 130.3651123046875 17.850000381469727 130.0784454345703 16.119998931884766 129.50511169433594 15.039999961853027 C 128.92510986328125 13.966666221618652 128.0751190185547 13.149999618530273 126.95511627197266 12.59000015258789 C 125.94844818115234 12.8100004196167 124.73178100585938 12.989999771118164 123.30511474609375 13.130000114440918 L 123.17511749267578 12.210000038146973 C 125.64178466796875 11.956666946411133 127.26177978515625 11.366666793823242 128.0351104736328 10.440000534057617 C 128.80178833007812 9.520000457763672 129.18511962890625 7.876667022705078 129.18511962890625 5.510000228881836 C 129.18511962890625 3.1433334350585938 128.9551239013672 1.4500007629394531 128.4951171875 0.43000030517578125 C 128.02845764160156 -0.5966663360595703 127.25178527832031 -1.1100006103515625 126.16511535644531 -1.1100006103515625 C 125.07178497314453 -1.1100006103515625 124.29512023925781 -0.7800006866455078 123.83511352539062 -0.12000083923339844 C 123.36845397949219 0.5400009155273438 123.13511657714844 1.1633338928222656 123.13511657714844 1.75 C 123.13511657714844 2.3366661071777344 123.21845245361328 2.85333251953125 123.38511657714844 3.299999237060547 L 124.60511779785156 3.299999237060547 C 124.831787109375 3.8933334350585938 124.94511413574219 4.600000381469727 124.94511413574219 5.420000076293945 C 124.94511413574219 6.246665954589844 124.5951156616211 6.9633331298828125 123.8951187133789 7.569999694824219 C 123.19511413574219 8.170000076293945 122.27178192138672 8.469999313354492 121.12511444091797 8.469999313354492 C 119.97178649902344 8.469999313354492 119.081787109375 8.100000381469727 118.45511627197266 7.3600006103515625 C 117.82178497314453 6.613332748413086 117.50511932373047 5.680000305175781 117.50511932373047 4.559999465942383 ZM 177.3592529296875 12.800000190734863 C 177.3592529296875 18.566665649414062 175.7359161376953 22.58333396911621 172.48924255371094 24.850000381469727 C 169.48924255371094 26.950000762939453 165.37258911132812 28 160.13925170898438 28 L 148.24925231933594 28 L 148.24925231933594 27.200000762939453 L 151.0192413330078 27.200000762939453 L 151.0192413330078 -0.6000003814697266 L 148.24925231933594 -0.6000003814697266 L 148.24925231933594 -1.3999996185302734 L 161.229248046875 -1.3999996185302734 C 166.6025848388672 -1.3999996185302734 170.6359100341797 -0.2999992370605469 173.32925415039062 1.8999996185302734 C 176.0159149169922 4.093334197998047 177.3592529296875 7.726667404174805 177.3592529296875 12.800000190734863 M 159.20924377441406 27.200000762939453 L 160.8092498779297 27.200000762939453 C 163.6359100341797 27.200000762939453 165.65924072265625 26.200000762939453 166.87924194335938 24.200000762939453 C 168.0992431640625 22.200000762939453 168.70924377441406 18.84666633605957 168.70924377441406 14.140000343322754 L 168.70924377441406 11.700000762939453 C 168.70924377441406 5.399999618530273 167.50257873535156 1.6066665649414062 165.08924865722656 0.31999969482421875 C 163.9425811767578 -0.2933330535888672 162.31924438476562 -0.6000003814697266 160.21925354003906 -0.6000003814697266 L 159.20924377441406 -0.6000003814697266 L 159.20924377441406 27.200000762939453 ZM 190.54736328125 28.420000076293945 C 186.93402099609375 28.420000076293945 184.22402954101562 27.489999771118164 182.4173583984375 25.630001068115234 C 180.61070251464844 23.76333236694336 179.70736694335938 21.17333221435547 179.70736694335938 17.860000610351562 C 179.70736694335938 14.539999961853027 180.72402954101562 11.996665954589844 182.75735473632812 10.229999542236328 C 184.78402709960938 8.469999313354492 187.36402893066406 7.590000152587891 190.4973602294922 7.590000152587891 C 196.85736083984375 7.590000152587891 199.9106903076172 10.780000686645508 199.65736389160156 17.15999984741211 L 187.81736755371094 17.15999984741211 L 187.81736755371094 18.799999237060547 C 187.81736755371094 21.546667098999023 188.1673583984375 23.619998931884766 188.8673553466797 25.020000457763672 C 189.56736755371094 26.420000076293945 190.78402709960938 27.1200008392334 192.51736450195312 27.1200008392334 C 195.76402282714844 27.1200008392334 197.8907012939453 25.383333206176758 198.89736938476562 21.90999984741211 L 199.65736389160156 22.040000915527344 C 199.1240234375 24.053333282470703 198.16403198242188 25.619998931884766 196.77735900878906 26.739999771118164 C 195.3907012939453 27.860000610351562 193.31402587890625 28.420000076293945 190.54736328125 28.420000076293945 M 187.85736083984375 16.31999969482422 L 192.1773681640625 16.31999969482422 L 192.1773681640625 14.270000457763672 C 192.1773681640625 11.996665954589844 192.04736328125 10.446666717529297 191.78736877441406 9.620000839233398 C 191.52069091796875 8.799999237060547 190.98736572265625 8.389999389648438 190.18736267089844 8.389999389648438 C 189.38735961914062 8.389999389648438 188.80068969726562 8.829999923706055 188.4273681640625 9.709999084472656 C 188.04736328125 10.59000015258789 187.85736083984375 12.109999656677246 187.85736083984375 14.270000457763672 L 187.85736083984375 16.31999969482422 ZM 201.7180938720703 28.420000076293945 L 201.7180938720703 20.899999618530273 L 202.2180938720703 20.899999618530273 C 202.94476318359375 23.34000015258789 203.9247589111328 25.049999237060547 205.15809631347656 26.030000686645508 C 206.3914337158203 27.010000228881836 207.93142700195312 27.5 209.77809143066406 27.5 C 212.6314239501953 27.5 214.05809020996094 26.59000015258789 214.05809020996094 24.770000457763672 C 214.05809020996094 23.983333587646484 213.70809936523438 23.393333435058594 213.00808715820312 23 C 211.9214324951172 22.386667251586914 210.52142333984375 21.90999984741211 208.80809020996094 21.56999969482422 C 206.90809631347656 21.06999969482422 205.31475830078125 20.399999618530273 204.02809143066406 19.560001373291016 C 202.48809814453125 18.553333282470703 201.7180938720703 16.956666946411133 201.7180938720703 14.770000457763672 C 201.7180938720703 12.583333015441895 202.38809204101562 10.84000015258789 203.72808837890625 9.540000915527344 C 205.07476806640625 8.239999771118164 206.8680877685547 7.590000152587891 209.10809326171875 7.590000152587891 C 210.48143005371094 7.590000152587891 211.89476013183594 7.909999847412109 213.3480987548828 8.549999237060547 C 213.8814239501953 8.776666641235352 214.28810119628906 8.889999389648438 214.56809997558594 8.889999389648438 C 214.8480987548828 8.889999389648438 215.0847625732422 8.793333053588867 215.27809143066406 8.600000381469727 C 215.47808837890625 8.399999618530273 215.7180938720703 8.033332824707031 215.9980926513672 7.5 L 216.45809936523438 7.5 L 216.45809936523438 13.930000305175781 L 215.94808959960938 13.930000305175781 C 214.52142333984375 10.290000915527344 212.31143188476562 8.469999313354492 209.31809997558594 8.469999313354492 C 207.9980926513672 8.469999313354492 207.01809692382812 8.700000762939453 206.3780975341797 9.15999984741211 C 205.73143005371094 9.626667022705078 205.40809631347656 10.209999084472656 205.40809631347656 10.90999984741211 C 205.40809631347656 11.329999923706055 205.50808715820312 11.656665802001953 205.70809936523438 11.889999389648438 C 205.90142822265625 12.130000114440918 206.0547637939453 12.306666374206543 206.1680908203125 12.420000076293945 C 206.28143310546875 12.533333778381348 206.46142578125 12.649999618530273 206.70809936523438 12.770000457763672 C 206.96142578125 12.896666526794434 207.1714324951172 12.99666690826416 207.3380889892578 13.069999694824219 C 207.5114288330078 13.136666297912598 207.77142333984375 13.226666450500488 208.1180877685547 13.34000015258789 C 208.471435546875 13.453332901000977 208.73143005371094 13.523333549499512 208.89810180664062 13.550000190734863 C 210.798095703125 14.029999732971191 212.1680908203125 14.443333625793457 213.00808715820312 14.789999961853027 C 213.8480987548828 15.143333435058594 214.64810180664062 15.569999694824219 215.40809631347656 16.06999969482422 C 216.94808959960938 17.13666534423828 217.7180938720703 18.85333251953125 217.7180938720703 21.219999313354492 C 217.7180938720703 23.586666107177734 217.01809692382812 25.376667022705078 215.6180877685547 26.59000015258789 C 214.2180938720703 27.809999465942383 212.298095703125 28.420000076293945 209.85809326171875 28.420000076293945 C 208.124755859375 28.420000076293945 206.44476318359375 28.013334274291992 204.81809997558594 27.200000762939453 C 204.48475646972656 26.979999542236328 204.221435546875 26.8700008392334 204.02809143066406 26.8700008392334 C 203.40809631347656 26.8700008392334 202.8047637939453 27.386667251586914 202.2180938720703 28.420000076293945 L 201.7180938720703 28.420000076293945 ZM 232.70501708984375 28 L 232.70501708984375 27.239999771118164 L 234.64501953125 27.239999771118164 L 229.89501953125 17.5 L 229.0950164794922 17.709999084472656 L 229.0950164794922 27.239999771118164 L 231.0250244140625 27.239999771118164 L 231.0250244140625 28 L 218.9750213623047 28 L 218.9750213623047 27.239999771118164 L 221.28501892089844 27.239999771118164 L 221.28501892089844 -2.739999771118164 L 218.80502319335938 -2.739999771118164 L 218.80502319335938 -3.5 L 229.0950164794922 -3.5 L 229.0950164794922 16.869998931884766 L 229.76502990722656 16.619998931884766 L 239.21502685546875 8.760000228881836 L 235.2750244140625 8.760000228881836 L 235.2750244140625 8.010000228881836 L 243.54502868652344 8.010000228881836 L 243.54502868652344 8.760000228881836 L 240.6050262451172 8.760000228881836 L 235.6050262451172 13.010000228881836 L 242.87503051757812 27.239999771118164 L 244.38502502441406 27.239999771118164 L 244.38502502441406 28 L 232.70501708984375 28 Z" transform="matrix(2.3171770572662354, 0, 0, 2.3171770572662354, 392.8815612792969, 64.57539367675781)" style="fill: rgb(51, 51, 51); white-space: pre; color: rgb(51, 51, 51);"/></svg>